<?xml version="1.0" encoding="UTF-8"?>
<svg id="Layer_2" xmlns="http://www.w3.org/2000/svg" viewBox="0 0 1080 1080">
  <path d="M577.4,0c0,12.5,0,25.1,0,37.6,0,4.5,0,4.6-4.8,4.6-19.3,0-38.6,0-57.9,0-4.4,0-4.5.2-4.4,4.5,0,3.8,0,3.9,4.3,3.9,18.5,0,37,0,55.5,0,1.4,0,2.9.1,4.3,0,2.5-.2,3.3,1,3.1,3.3,0,1,0,2.1,0,3.1,0,28,0,55.9,0,83.9,0,1.2,0,2.5,0,3.7.2,2.2-1,2.9-3,2.8-1.2,0-2.5,0-3.7,0-34.1,0-68.2,0-102.2,0-.8,0-1.7-.1-2.5,0-3.4.4-4.1-1.2-4.1-4.3.1-11.9.2-23.9,0-35.8,0-3.5,1.3-4.1,4.3-4,18.5.1,37,0,55.5,0,1.4,0,2.9-.1,4.3,0,2.4.2,3.2-.9,3.2-3.2.2-5,.2-5.2-4.9-5.2-18.5,0-37,0-55.5,0-1.4,0-2.9,0-4.3,0-1.8,0-2.6-.8-2.6-2.6,0-1.6,0-3.3,0-4.9,0-27.6,0-55.1,0-82.7,0-1.6.4-3.3-.6-4.8h116Z" style="fill: #1a1a1a;"/>
  <path d="M716.8,0c-1,1.9-.5,4-.5,6.1,0,10.7-.1,21.4,0,32.1,0,3.3-1,4.5-4.2,4.1-1.2-.2-2.5,0-3.7,0-18.3,0-36.6,0-54.9,0-1.5,0-3.7-.9-4.2,1.3-.5,1.9-.2,4.1,0,6.1,0,.8,1.1,1,2,1,1.4,0,2.9,0,4.3,0,18.5,0,37,0,55.5,0,5.1,0,5.2,0,5.2,4.9,0,29,0,58,0,87,0,4.8,0,4.9-4.6,4.9-35.3,0-70.6,0-106,0-4.8,0-4.8,0-4.9-4.6,0-11.7,0-23.4,0-35.2,0-4.2,0-4.2,4.5-4.3,19.3,0,38.6,0,58,0,4.6,0,4.7-.1,4.7-4.3,0-4,0-4-4-4.2-1,0-2.1,0-3.1,0-17.7,0-35.4,0-53,0-8,0-7,.9-7-6.8,0-28,0-55.9,0-83.9,0-1.4,0-2.9,0-4.3,38.7,0,77.3,0,116,0Z" style="fill: #1a1a1a;"/>
  <path d="M439.3,0c0,14.4-.1,28.8-.2,43.2,0,5.3,0,5.3-5.4,5.3-18.7,0-37.4,0-56.1,0-5.8,0-5.9,0-5.9,5.5,0,12.8,0,25.5,0,38.3,0,4.6,0,4.7,4.9,4.7,18.5,0,37,0,55.5,0,2.2,0,4.5-.5,7,.8,0,11.7,0,23.6,0,35.5,0,2.9-.1,5.8,0,8.6.2,2.8-1.1,3.5-3.7,3.4-10.5,0-21,0-31.5,0-24.9,0-49.7,0-74.6,0-6.5,0-6,.5-6-6,0-46.5,0-93,0-139.5h116Z" style="fill: #1a1a1a;"/>
  <path d="M901.8,211.9c-.8,0-1.6,0-2.5,0-249.8,0-499.6,0-749.3,0-2,0-4.1-.6-6.2.9,2.5,18.6,3.6,37.5,5.4,56.3,2,20.9,3.6,41.8,5.5,62.7,2.3,26.2,4.7,52.4,7,78.6,1.8,20.1,3.5,40.1,5.3,60.2,1.8,20.5,3.8,40.9,5.6,61.4,1.9,21.1,3.6,42.2,5.5,63.3,1.9,21.5,3.9,43,5.8,64.5,1.8,20.3,3.6,40.5,5.4,60.8,1.8,20.5,3.7,40.9,5.6,61.4,2.2,25.2,4.4,50.4,6.6,75.6,2.3,26.2,4.7,52.4,7,78.6,1.4,15.8,2.6,31.6,4.3,47.3.9,8.3-.5,6.4,7.1,8.5,25.3,7.1,50.6,14.1,75.9,21.2,75,20.8,150,41.6,224.9,62.5,2.7.8,5.1.8,7.8,0,100.3-27.9,200.6-55.7,300.9-83.5q7.1-2,7.9-9.3c.1-1.2.2-2.5.3-3.7,1.4-16,2.7-32,4.1-47.9,2.3-25.6,4.7-51.2,7-76.8,2.6-29.5,5.2-59,7.8-88.5,2.3-26.4,4.8-52.8,7.1-79.2,1.4-16,2.8-31.9,4.2-47.9,2.3-25.4,4.6-50.8,6.8-76.2,1.8-20.1,3.5-40.1,5.3-60.2,1.9-21.1,3.8-42.2,5.7-63.3,1.9-21.1,3.8-42.2,5.7-63.3,1.9-20.9,3.7-41.8,5.5-62.6,1.5-16.2,3-32.3,4.4-48.5,1.4-16.2,2.9-32.3,4.2-48.5.3-4.1.2-4.1-3.8-4.3ZM763.3,374c-2.4,27.8-4.8,55.7-7.2,83.5-2.7,29.9-5.5,59.7-8.2,89.6-2.7,29.7-5.2,59.3-7.8,89-2.7,29.7-5.5,59.3-8.1,89-2.2,25.2-4.3,50.3-6.6,75.5-1.6,17.8-3.3,35.6-4.8,53.4-.3,3.5-2.3,3.8-4.7,4.5-20.2,5.6-40.3,11.2-60.5,16.8-43.3,12.1-86.6,24.1-129.9,36.2-.4-.2-.8-.3-1.2-.5-8.9-1.4-17.5-4.4-26.1-6.8-54.2-15-108.4-30.1-162.6-45.1-6.4-1.8-6.5-1.8-7.1-8.6-2.6-30.1-5.2-60.2-7.8-90.3-1.4-15.8-2.9-31.5-4.5-47.3-.5-5.4-.5-5.5,4.9-5.5,28.4,0,56.7,0,85.1,0,5.5,0,5.3,0,5.9,5.9,2,22.3,4.1,44.6,5.9,66.9.3,3.5,2.4,3.8,4.7,4.5,20.2,5.5,40.4,10.9,60.6,16.4,13.7,3.7,27.3,7.5,40.9,11.3.5-.2,1-.5,1.5-.8,1.4-.3,2.8-.4,4.2-.8,32.1-8.6,64.1-17.3,96.2-26,5-1.3,4.9-1.4,5.4-6.6,1.9-21.3,3.9-42.5,5.8-63.8,1.4-15.9,2.9-31.9,4.2-47.8.6-7.1.4-7.1-6.5-7.1-34.7,0-69.4,0-104.1,0-1.8,0-3.7.2-5.5.4-.4-.2-.8-.4-1.2-.7-2.3,0-4.5.2-6.8.2-66.2,0-132.4,0-198.5,0-8.1,0-7.4,1-8.1-7.5-1.8-20.9-3.7-41.7-5.6-62.6-.6-7.2-1.2-14.3-1.8-21.5-.2-2.5.5-3.9,3.3-3.7,1,.1,2.1,0,3.1,0,69.7,0,139.4,0,209,0,1.8,0,3.7.2,5.5.3.4-.2.8-.4,1.2-.5,1.2,0,2.5.3,3.7.3,38.6,0,77.3,0,115.9,0s1.6,0,2.5,0c1.7,0,2.7-.6,2.9-2.4.1-1.2.5-2.4.6-3.6,2.2-24.4,4.3-48.7,6.5-73.1.4-4.9.8-9.8,1.3-14.7.3-3-.9-4.2-3.8-3.9-1,.1-2,0-3.1,0-22.4,0-44.8,0-67.2,0-20.1,0-40.3.1-60.4.2v-.5c-2.1,0-4.4.3-6.6.3-72,0-143.9,0-215.9,0-7.5,0-7.3,1.8-8.1-7.6-1.9-21.7-3.9-43.4-5.9-65.1-.6-6.3-1-12.7-1.6-19-.3-3,.7-4.2,3.8-3.9,1.4.1,2.9,0,4.3,0,74.4,0,148.8,0,223.2,0,2.7,0,5.3-.2,8-.3,0,.3.2.6.4.9,2,0,4.1-.2,6.2-.2,74.8,0,149.5,0,224.3,0,2,0,4.1.2,6.1.3,1.5.4,1.2,1.5.8,2.5Z" style="fill: #1a1a1a;"/>
  <path d="M763.3,374c-.8-.7-.8-1.6-.8-2.5,1.5.4,1.2,1.5.8,2.5Z" style="fill: #1a1a1a;"/>
</svg>