<?xml version="1.0" encoding="UTF-8"?>
<svg id="Layer_1" xmlns="http://www.w3.org/2000/svg" viewBox="0 0 1080 1080">
  <path d="M711.7,0c-.1,1.9-.4,3.9-.4,5.8,0,44.6,0,89.2,0,133.8v5.9h-48.5v-70.3c-.3-.1-.7-.2-1-.4-10.9,16.7-21.8,33.5-33.1,51-11.2-17.3-22.2-34.1-33.1-51-.3,0-.5.2-.8.2v70.3h-48V0h51.4c10.2,17,20.4,33.9,30.9,51.4,10.7-17.7,21-34.6,31.2-51.4h51.4Z" style="fill: #111;"/>
  <path d="M370.2,0c-.1,1.9-.3,3.9-.3,5.8,0,44.6,0,89.2,0,133.8v6h-48.4v-48.1h-44.6v48.1h-49V0h48.7v47.9h45.1V0h48.7Z" style="fill: #111;"/>
  <path d="M525.7,40.9c0,2.4,0,4.8,0,7.6h-42.9v96.9h-48.4V48.9h-43.4V0h135.2c-.1,13.7-.3,27.3-.4,40.9Z" style="fill: #111;"/>
  <path d="M852.5,97.4v48.2h-117.2v-5.5c0-44.9,0-89.8,0-134.6,0-1.8-.1-3.6-.2-5.4h48.7v97.4h68.7Z" style="fill: #111;"/>
  <path d="M157,213.1c1.6,18,3.1,35.8,4.7,53.5,1.7,18.8,3.4,37.6,5.1,56.4,1.6,18.2,3.2,36.4,4.8,54.7,1.7,19,3.4,37.9,5.1,56.9,1.3,14.8,2.6,29.6,3.9,44.4,1.7,18.8,3.4,37.6,5.1,56.4,1.6,18.2,3.2,36.4,4.8,54.7,1.7,19.1,3.4,38.2,5.1,57.3,1.3,14.6,2.6,29.3,3.9,43.9,1.7,19,3.4,37.9,5.1,56.9,1.6,18.1,3.2,36.1,4.8,54.2,2,22,4,43.9,6,65.9,1.6,18.4,3.1,36.7,4.8,55.1,2,22.3,4.2,44.5,6,66.8.3,3.4,1.5,4.5,4.5,5.3,101.2,27.9,202.3,55.9,303.5,83.8,3.1.8,6.8.9,9.9,0,78.7-21.6,157.4-43.4,236-65.2,23-6.4,45.9-12.7,68.8-19.2,1.6-.5,3.8-2.3,4-3.7,1.8-17.6,3.2-35.2,4.8-52.9,1.6-17.9,3.2-35.8,4.8-53.8,1.7-18.7,3.4-37.3,5.1-56,1.6-18.4,3.2-36.7,4.8-55.1,1.7-18.8,3.4-37.6,5.1-56.4,1.3-14.9,2.6-29.9,4-44.8,1.7-18.7,3.4-37.3,5-56,1.6-18.4,3.2-36.7,4.8-55.1,1.7-18.7,3.4-37.3,5.1-56,1.4-15.1,2.6-30.2,4-45.3,1.7-18.5,3.4-37,5-55.5,1.6-18.4,3.2-36.7,4.8-55.1,1.7-18.5,3.4-37,5.1-55.5,1.7-19.3,3.5-38.5,5.2-57.8.7-7.5,1.2-15.1,1.8-22.8H157ZM778.4,391c-1.4,15.4-2.9,30.7-4.3,46.1-.9,9.5-1.7,19.1-2.9,28.6-.1,1.1-2,2.4-3.4,3-1.1.5-2.7.1-4,.1-73.1,0-146.3,0-219.4,0-44.6,0-89.2-.1-133.8-.2h-6.3c.8,9.3,1.5,17.9,2.3,26.5,1.7,18.5,3.4,37,5.1,55.6.3,3,.6,6,.8,9,.4,6.2.4,6.2,6.8,6.2,29.3,0,58.6,0,87.8,0,82.6,0,165.2-.2,247.8-.2,7.9,0,7.6,0,6.8,7.6-1.5,14.5-2.6,28.9-3.9,43.4-1.4,15.7-2.9,31.3-4.3,47-1.3,14.6-2.5,29.3-3.8,43.9-1.4,15.5-2.9,31-4.2,46.5-1.3,14.6-2.6,29.3-3.9,43.9-1.4,15.5-2.8,31-4.3,46.5-.4,4-1.1,8.1-1,12.1,0,3.5-1.4,5-4.6,5.9-22.7,6.2-45.3,12.5-67.9,18.8-39.9,11.1-79.9,22.2-119.9,33.1-2.9.8-6.3,1-9.1.2-62.8-17.4-125.6-34.9-188.4-52.3-3.3-.9-4.3-2.5-4.6-5.9-1.8-21.8-3.9-43.6-5.9-65.4-1.7-18.4-3.2-36.7-4.8-55.1-.7-7.5-1.3-14.9-1.9-22.4,0-1,0-2,0-3.3,1.7,0,3.2-.2,4.7-.2,29,0,58,0,86.9-.1,4.2,0,5.2,1.4,5.5,5.3,1.9,22.9,4.1,45.7,6,68.6.2,2.4,1.3,3.2,3.5,3.8,33.6,8.9,67.1,18,100.7,26.9,1.6.4,3.5.4,5.2,0,33.1-8.8,66.2-17.8,99.4-26.5,3.3-.9,4.8-2.3,5-5.7.9-11.3,2-22.7,3-34,1.4-15.7,2.9-31.3,4.3-47,1-11,2-22.1,2.9-33.1.1-1.6,0-3.2,0-5.4h-5.7c-106.5,0-212.9-.1-319.4-.2-6.9,0-6.7,0-7.3-6.8-1.9-22-4-43.9-6-65.9-1.6-18.1-3.2-36.1-4.8-54.2-2-21.8-4-43.6-6-65.4-1.6-17.8-3.2-35.5-4.8-53.3-1.1-12.2-2.3-24.5-3.3-36.7-.2-2.5,0-5,0-7.9h480.7c-.5,6.4-.8,12.6-1.4,18.8Z" style="fill: #111;"/>
</svg>