<?xml version="1.0" encoding="UTF-8"?>
<svg id="Layer_8" xmlns="http://www.w3.org/2000/svg" viewBox="0 0 1080 1080">
  <path d="M606.4,108.8c-5.1-7.1-10.6-12.8-16-18.7-14.7-16.1-29.5-32.1-44.3-48-2.7-2.9-4-5.8-3.8-9.9.4-7.6,0-15.2.1-22.8,0-3.8,0-3.9,3.9-3.9,16.6,0,33.1,0,49.7,0,25,0,50,0,75.1,0,4.7,0,4.3-.4,4.3,4.4,0,9.8,0,19.6,0,29.4,0,4.3,0,4.4-4.5,4.5-11.3.2-22.6.3-34,.6-7.4.2-14.8.5-22.4.7-.4,1.9,1.2,2.7,2.1,3.7,19.3,20.8,38.6,41.6,58,62.3,2.5,2.6,3.7,5.2,3.5,8.9-.3,7.9,0,15.9,0,23.8,0,4.6,0,4.6-4.7,4.6-35.5,0-71,0-106.5,0-7.1,0-14.2,0-21.3,0-2.4,0-3.2-.7-3.2-3.2.1-10.6.1-21.3,0-31.9,0-2.7.9-3.4,3.5-3.4,11.8.1,23.7,0,35.5,0,8.1,0,16.1-.3,25.1-1.2Z" style="fill: #1a1a1a;"/>
  <path d="M519.7,77.2c0,21.8,0,43.5,0,65.3,0,.8,0,1.7,0,2.5.2,2.4-.6,3.9-3.4,3.6-.7,0-1.4,0-2,0-35.7,0-71.4,0-107,0-.5,0-1,0-1.5,0-3.6,0-3.7,0-3.7-3.6,0-12.2,0-24.4,0-36.5,0-2.2,0-4.4,0-6.6,0-1.2.5-1.9,1.8-1.8,1.2,0,2.4,0,3.6,0,19.1,0,38.2,0,57.3,0,7.3,0,6.3,1,6.3-6.6,0-27.2,0-54.5,0-81.7,0-1.2,0-2.4,0-3.5-.2-2,.6-2.7,2.6-2.6,3.9.1,7.8,0,11.7,0,10,0,20,0,29.9,0,4,0,4.5-.8,4.4,4.3,0,22.4,0,44.9,0,67.3,0,0,0,0,0,0Z" style="fill: #1a1a1a;"/>
  <path d="M668.3,875.5h0s0,0,0,0c0,0,0,0,0,0Z" style="fill: #1a1a1a;"/>
  <path d="M675.4,873.5h0s0,0,0,0h0s0,0,0,0Z" style="fill: #1a1a1a;"/>
  <path d="M689.6,869.4h0c0,0,0,0,0,0,0,0,0,0,0,0Z" style="fill: #1a1a1a;"/>
  <path d="M692.7,868.4h0s0,0,0,0h0s0,0,0,0Z" style="fill: #1a1a1a;"/>
  <path d="M640.6,782.8s0,0,0,0h0s0,0,0,0h0Z" style="fill: #1a1a1a;"/>
  <path d="M640.6,782.8h0s0,0,0,0h0Z" style="fill: #1a1a1a;"/>
  <path d="M642.6,781.9s0,0,0,0c0,0,0,0,0,0h0Z" style="fill: #1a1a1a;"/>
  <path d="M640.6,782.8s0,0,0,0h0,0Z" style="fill: #1a1a1a;"/>
  <path d="M642.7,781.8s0,0,0,0c0,0,0,0,0,0h0Z" style="fill: #1a1a1a;"/>
  <path d="M689.6,869.4h0c0,0,0,0,0,0h0s0,0,0,0Z" style="fill: #1a1a1a;"/>
  <path d="M696.7,867.3s0,0,0,0h0s0,0,0,0h0Z" style="fill: #1a1a1a;"/>
  <path d="M668.3,875.5h0s0,0,0,0c0,0,0,0,0,0Z" style="fill: #1a1a1a;"/>
  <path d="M675.4,873.5h0s0,0,0,0h0s0,0,0,0Z" style="fill: #1a1a1a;"/>
  <path d="M692.7,868.4h0s0,0,0,0h0s0,0,0,0Z" style="fill: #1a1a1a;"/>
  <path d="M911.5,214.7H169c-1.2,0-2.4,0-3.6,0-3.6.1-3.5.1-3.8,3.7-.3,5.9.5,11.8,1,17.7,1,13.3,2.1,26.6,3.3,39.9,1.5,17.7,3.2,35.3,4.7,53,1.2,13.3,2.2,26.6,3.3,39.9,1.6,18.7,3.3,37.3,5,56,.7,8.2,1.4,16.5,2.2,24.7,1.6,18.3,3.3,36.7,4.9,55,.8,8.4,1.5,16.8,2.2,25.2,1.6,17.7,3.2,35.3,4.8,53,.8,9.1,1.6,18.2,2.4,27.3,1.2,13.6,2.5,27.2,3.7,40.9,1.1,12.6,2.1,25.2,3.3,37.8,1.6,17.1,3.2,34.3,4.8,51.4,1.2,13,2.1,25.9,3.3,38.9,2.2,24.2,4.5,48.4,6.7,72.6,1.7,18.7,3.4,37.3,5,56,2.2,24.7,4.3,49.5,6.4,74.2.7,7.9.6,7.8,8.3,10,36.3,10.1,72.5,20.3,108.8,30.3,58.4,16.2,116.8,32.4,175.2,48.5,5.5,1.5,11.1,4,16.7,4s11.5-2.3,17.2-3.9c49.4-13.4,98.7-26.6,148-40.2,39.2-10.8,78.5-21.5,117.4-33.2,8.7-2.6,17.5-5.2,25.8-9,3-1.4,4.9-3.3,4.8-6.9,0-2.7.5-5.4.8-8.1,1.5-16.5,3-33,4.5-49.5,1.5-16.6,3.2-33.3,4.7-49.9,1.2-13.3,2.3-26.6,3.4-39.9,1.6-18.2,3.3-36.3,4.9-54.5,1.1-12.1,2.1-24.2,3.2-36.3,1.5-17.1,3.2-34.3,4.7-51.4,1.2-13.3,2.2-26.6,3.4-39.9,1.6-17.7,3.2-35.3,4.8-52.9.8-9.1,1.5-18.2,2.3-27.3,1.5-17.3,3.2-34.6,4.7-51.9.8-9.4,1.5-18.8,2.4-28.3,1.5-17,3.2-34,4.7-50.9,1.2-13.6,2.3-27.3,3.4-40.9,1.6-18.5,3.3-37,4.9-55.5.8-8.6,1.4-17.2,2.2-25.7,1.5-17.3,3.2-34.6,4.7-51.9,1.3-14.6,2.3-29.3,3.5-43.9.6-7.8.7-7.8-6.7-7.8ZM440.3,564.6c1.2,0,2.4,0,3.5,0,29.2,0,58.5,0,87.7,0,1.9,0,3.7.1,5.6.2,1-.2,2-.4,3-.6,1.9,0,3.7.3,5.6.3,59.9,0,119.7.2,179.6.2,9.6,0,19.3.5,28.9,1.1,1.2,0,2.4.2,3.5.5,3.6.9,3.6,1.1,3.2,4.9-1.3,12.1-2.4,24.2-3.6,36.3-1.2,12.8-2.5,25.5-3.6,38.3-1.2,13-2.3,25.9-3.4,38.9-1.2,13.6-2.5,27.2-3.7,40.9-1.1,12.4-2.2,24.9-3.3,37.3-1.2,13.3-2.5,26.6-3.8,39.8-1.1,11.8-2.2,23.5-3.4,35.3-.5,5-1.3,10-1.8,15.1-.2,1.9-.9,3.1-2.8,3.7-9.2,2.9-18.2,6.3-27.6,8.4-1.2,1.2-2.7,1.1-4.1,1.2h0c-.8,1-2,.8-3.1.9h0c-1.1,1.2-2.6,1.1-4,1.2,0,0,0,0,0,0,0,0,0,0,0,0,0,0-.1.1-.2.2,0,0-.1.1-.2.1-.8.7-1.8.6-2.8.7,0,0,0,0,0,0-1.1,1.2-2.6,1-4,1.2h0c-.8.9-1.9.9-3.1,1h0c-2.1,1.5-4.6,1.8-7.1,2,0,0,0,0,0,0,0,0,0,0,0,0-.3.3-.7.5-1,.7-.1,0-.2.1-.4.2-.8.4-1.6.6-2.5.8-.5,0-.9.2-1.4.2-.6,0-1.2.1-1.9.2,0,0,0,0,0,0,0,0,0,0,0,0,0,0,0,0-.1,0s0,0-.1,0c-.2.1-.3.2-.5.3-.2.2-.5.3-.7.4-.9.4-1.8.6-2.9.6-.6.1-1.3.3-1.9.4-1.6,1.1-3.4,1.4-5.2,1.6-.6.1-1.3.2-1.9.3-7.6,3-15.6,4.7-23.5,7-3.7,1.1-7.4,1.9-11.2,2.8-.6.1-1.3.3-1.9.4-.6.8-1.3.8-2.2.7-.6.1-1.3.2-1.9.4-6.9,2.9-14.2,4.3-21.3,6.2-12.2,3.3-24.3,6.9-36.7,9.6-.6.1-1.3.2-1.9.3-4.9,2.3-10.3,2.7-15.3,4.3h0c-1.7,0-3.3-.2-4.9-.5-4.9-.8-9.5-2.5-14.3-3.8-53.4-14.6-106.7-29.2-159.9-44.8-3.7-1.1-7.4-2.3-11.2-3.3-2.8-.7-4.2-2.2-4.7-5.1-1.6-9.8-3-19.7-4.1-29.6-1.6-14.6-3.2-29.2-4.7-43.8-.9-8.6-1.6-17.1-2.3-25.7-1-13-2-25.9-2.7-38.9-.5-10.5-.5-8.5,7.6-8.5,27.2,0,54.4,0,81.7,0s2,0,3,0c4.4,0,4.3.1,4.7,4.6,2,21.2,3.9,42.3,5.9,63.5.7,7,.7,6.9,7.8,8.9,29.5,8.1,58.8,16.4,88.5,23.7,2.4.6,4.8,1.7,7.4,1.4,1.9.3,3.7,0,5.5-.5,23.8-5.3,47.3-11.8,70.8-18.2,9.1-2.5,18.1-5.1,27.1-7.7,0,0,0-.1,0-.1,0,0,0,0,0,0,.3-.3.6-.5.9-.6,0,0,.1,0,.2,0,0,0,0,0,0,0,0,0,.1,0,.2,0,0,0,.1,0,.2,0,0,0,.2,0,.3,0,0-.2,0-.4.1-.6,0-.4.2-.9.2-1.3,0-.6.2-1.2.3-1.9,0-.2,0-.4,0-.6,0-.2,0-.4,0-.6.1-.9.3-1.7.5-2.6,0-.2,0-.4.1-.6,0-.2.1-.4.2-.7,0-.1,0-.3.1-.4,0-.1,0-.2,0-.3,0-.2.1-.3.2-.5,0-.5,0-1,0-1.5,1.7-17.6,3.4-35.3,5-52.9,1.5-17.5,2.8-35,5.3-52.4.5-3.3.2-3.5-3.1-3.6-1.2,0-2.4,0-3.5,0-30.1,0-60.2,0-90.3,0-5.9,0-11.8.1-17.8.2-2.2-.1-4.4-.3-6.6-.3-65.6,0-131.2,0-196.8,0s-6.9,0-6.3-7.1c1.3-15.6,2.5-31.3,3.8-46.9,1.5-17,3.2-33.9,4.7-50.9,1.1-12.3,2.1-24.6,3.2-36.8,1.6-18.2,3.3-36.3,4.9-54.4,1.2-12.9,2.2-25.9,3.4-38.8,1.5-16.6,3.1-33.2,4.7-49.9,1.1-11.3,2.1-22.5,3.2-33.8.8-8.2,1.7-16.5,2.3-24.7.2-2.8,1.4-3.7,4-4.1,2.7-.4,5.4-.5,8.1-.6,24.7-1.2,49.3-1,74-1,29.4,0,58.8,0,88.3,0,1.7,0,3.4-.1,5.1-.2,1.3,0,2.7.2,4,.2,29.2,0,58.4.1,87.6.2,17.9,0,35.8.3,53.6.5,1,0,2,.2,3,.3,3.7-.3,7.4-.3,11.1,0,13.5-.5,27-.1,40.6-.2,2,0,3,.6,3.2,2.8.9,10.9,1.9,21.8,2.9,32.8,1.2,13.6,2.5,27.2,3.7,40.8.8,9.4,1.6,18.8,2.4,28.3,1.2,13.3,2.5,26.5,3.7,39.8,1.2,12.8,2.2,25.6,3.4,38.3.6,6.2,1.3,12.4,1.9,18.6.3,3.6.2,3.8-3.5,3.8-28.6,0-57.1-.1-85.7-.2-.2,0-.3,0-.5,0-8.1-.4-8.9-1.1-9.3-9.1-1-18.7-3.2-37.3-5.1-55.9-1-9.1-1.9-18.1-3.2-27.1-.7-4.6-.6-4.7-5-5.3-12.4-1.8-24.9-2.3-37.4-2.9-23.8-1.1-47.6-2-71.4-2.1-1.9-1.7-4.2-.9-6.3-.8-18.4.5-36.8,1-55.2,1.7-7.9.3-15.9.1-23.8.9-4.8.5-4.7.3-5.2,5.3-1,10.7-2.2,21.5-3.2,32.2-1.7,16.8-3.3,33.6-4.9,50.4-.9,8.9-1.8,17.8-2.6,26.7-.9,9.6-1.8,19.1-2.5,28.7-.3,3.9-.1,4,3.7,4.1Z" style="fill: #1a1a1a;"/>
  <path d="M614.4,890.7c-6.9,2.9-14.2,4.3-21.3,6.2-12.2,3.3-24.3,6.9-36.7,9.6.5-2.4,2.8-2.2,4.4-2.6,17-4.6,34-9.1,51-13.7,1-.3,1.9-.6,2.6.5Z" style="fill: #1a1a1a;"/>
  <path d="M655,879.4c-7.6,3-15.6,4.7-23.5,7-3.7,1.1-7.4,1.9-11.2,2.8.3-2.1,2.2-2,3.5-2.4,9.6-2.7,19.3-5.3,29-8,.9-.3,1.6-.2,2.2.6Z" style="fill: #1a1a1a;"/>
  <path d="M682.5,871.5c-2.1,1.6-4.6,1.9-7.1,2.1,2-2.1,4.4-2.7,7.1-2.1Z" style="fill: #1a1a1a;"/>
  <path d="M675.4,873.5c-.3.3-.7.5-1,.7-.1,0-.2.1-.4.2-.8.4-1.6.6-2.5.8-.5,0-.9.2-1.4.2-.6,0-1.2.1-1.9.2,2-2.1,4.4-2.7,7.1-2.1Z" style="fill: #1a1a1a;"/>
  <path d="M662.1,877.4c-1.6,1.1-3.4,1.4-5.2,1.6,1.2-2.1,2.9-3.1,5.2-1.6Z" style="fill: #1a1a1a;"/>
  <path d="M668.3,875.5s0,0-.1.1c0,0,0,0-.1,0-.2.1-.3.2-.5.3-.2.2-.5.3-.7.4-.9.4-1.8.6-2.9.6.7-2.6,2.6-1.7,4.3-1.5Z" style="fill: #1a1a1a;"/>
  <path d="M703.9,865.2c-1.2,1.2-2.7,1.1-4.1,1.2.9-2.1,2.7-1.1,4.1-1.2Z" style="fill: #1a1a1a;"/>
  <path d="M696.7,867.3s0,0,0,0h0c-1.1,1.2-2.6,1.1-4,1.2,0,0,0,0,0,0,.8-2,2.5-1.2,4-1.2h0Z" style="fill: #1a1a1a;"/>
  <path d="M689.6,869.4s0,0,0,0c-1.1,1.2-2.6,1-4,1.2.8-2.2,2.5-1.2,4-1.2h0Z" style="fill: #1a1a1a;"/>
  <path d="M618.4,889.6c-.6.8-1.3.8-2.2.7.3-1.5.8-2.4,2.2-.7Z" style="fill: #1a1a1a;"/>
  <path d="M699.8,866.4c-.8,1-2,.9-3.1.9h0s0,0,0,0c.7-1.4,1.9-1.1,3.1-.9Z" style="fill: #1a1a1a;"/>
  <path d="M692.6,868.4h0s0,0,0,0h0c0,0-.1.1-.2.2,0,0-.1.1-.2.1-.8.7-1.8.6-2.8.7,0,0,0,0,0,0h0c.6-1.6,1.9-1.2,3.1-1Z" style="fill: #1a1a1a;"/>
  <path d="M685.6,870.5c-.8,1-1.9,1-3.1,1,.6-1.7,1.8-1.3,3.1-1Z" style="fill: #1a1a1a;"/>
  <path d="M645.7,771.8c-.1.3-.2.6-.3,1,0,.2,0,.4-.1.7,0,.3,0,.7-.1,1,0,.2,0,.4,0,.7,0,.3,0,.6,0,.8,0,.3,0,.5,0,.8,0,.4-.1.9-.2,1.3,0,.1,0,.3,0,.4,0,0,0,.2,0,.2,0,.1,0,.3-.1.4,0,0,0,.2,0,.3,0,.2-.2.4-.3.6,0,0,0,.2-.2.3-.2.3-.4.6-.6.9,0,0,0,0-.1.1,0,0,0,0-.1.1,0,0,0,0-.1.1-.1.1-.3.3-.4.4,0,0,0,0,0,0,0,0,0,0,0,0h0s0,0,0,0c0-.2,0-.4.1-.6,0-.4.2-.9.2-1.3,0-.6.2-1.2.3-1.9,0-.2,0-.4,0-.6,0-.2,0-.4,0-.6.1-.9.3-1.7.5-2.6,0-.2,0-.4.1-.6,0-.2.1-.4.2-.7,0-.1,0-.3.1-.4,0-.1,0-.2,0-.3,0-.2.1-.3.2-.5.4,0,.8,0,1.2,0Z" style="fill: #1a1a1a;"/>
  <path d="M642.7,781.8s0,0,0,0c0,0,0,.1,0,.2,0,0,0,0,0,0,0,0,0,.1-.1.2,0,0,0,.1-.1.1-.2.2-.4.3-.6.4,0,0-.1,0-.2,0,0,0-.1,0-.2,0-.1,0-.3,0-.4,0,0,0,0,0-.1,0,0,0,0,0-.1,0h0s0,0,0,0c0,0,0-.1,0-.1,0,0,0,0,0,0,.3-.3.6-.5.9-.6,0,0,.1,0,.2,0,0,0,0,0,0,0,0,0,.1,0,.2,0,0,0,.1,0,.2,0,0,0,.2,0,.3,0h0s0,0,0,0c0,0,0,0,0,0Z" style="fill: #1a1a1a;"/>
</svg>