<?xml version="1.0" encoding="UTF-8"?>
<svg id="Layer_5" xmlns="http://www.w3.org/2000/svg" viewBox="0 0 1080 1080">
  <path d="M58.8,415c17.3,21.1,36.4,40.2,47.7,64.2,25.4,53.4,4.9,102.8-36.8,136-3.1,2.5-4.7,4.8-4.8,8.5-.3,5.7-1.3,11.4-1.8,17.1-.2,2.7-.3,4.6-4.3,4.6-4.4,0-4.5-2.1-4.7-5-.4-5.7-1.3-11.4-1.6-17.1-.2-3.4-1.7-5.5-4.4-7.6-22.4-17.9-38.3-39.6-45.1-66.3-7.4-29.3-.3-56.6,15-82.6,11.1-18.8,27.1-34.2,40.9-51.8ZM58.1,507.4c-1.7,32.9-3.4,65.8-5,98.8-.2,4.4,3.6,10.6,6,9.7,4.7-1.8,6.3-5.3,5.9-10.1-.9-10.4-1.2-20.9-1.8-31.4-1.2-22.3-2.3-44.5-3.5-66.8.9-3.7.1-7.2-1.6-10.7v10.5Z" style="fill: #1a1a1a;"/>
  <path d="M200.5,515.7c0,11.7,0,23.1,0,34.5,0,17.8,0,35.5,0,53.3,0,4.3,1.4,7.3,6.2,7.7,3.8.3,2.9,2.3,3,4.3.2,2.7-1.8,2.5-3.7,2.5-8.6,0-17.1,0-25.7,0-2.8,0-3.5-.9-3.5-3.3,0-2.4.5-3.4,3.4-3.3,5.6.2,8.2-2.3,8.2-7.7.2-31.1.7-62.2,1-93.3,0-7.2-.7-8.2-8.7-8.8-3.1-.3-3.1-1.6-3.3-3.7-.2-2.6,1-3.2,3.7-3.2,8.6.1,17.1.2,25.7,0,3.7-.1,5.3,1.1,6.7,4.2,12.8,29.1,25.9,58.1,38.9,87.2.9,1.9,1.8,3.8,3.1,6.6,5.2-11.4,10.2-22.2,15.1-33.1,9-20.1,18.1-40.1,26.9-60.2,1.5-3.3,3.2-4.7,7.3-4.5,7.9.3,15.9.2,23.8,0,2.8,0,4.1.4,4.1,3.4,0,2.8-.9,3.5-3.9,3.5-5.8-.1-7.9,2.9-7.9,8,.2,30.9.3,61.8.4,92.8,0,7.3.7,8.3,8.5,9,2.8.3,2.8,1.4,2.8,3.3,0,1.9-.2,3.3-3,3.2-10.9-.1-21.7,0-32.6,0-2.2,0-3.5-.5-3.4-2.9,0-2.1,0-3.6,3.2-3.6,4.5,0,6.7-2.7,6.7-6.8-.2-28.2-.5-56.5-.8-84.7,0-.3-.3-.6-.7-1.3-2,1.6-2.5,3.9-3.3,5.9-13.8,30.2-27.5,60.4-41.2,90.6-1,2.3-1.7,5.1-4.9,5.3-3.6.2-4.5-2.8-5.6-5.3-14.4-31.8-28.9-63.6-43.4-95.4-.6-1.3-.7-2.9-2.8-4Z" style="fill: #1a1a1a;"/>
  <path d="M1011.4,552.3c2.3.8,3.9,1.3,5.4,1.8,13.5,4,22.4,11.7,23.5,25.2,1.1,14.2-4.9,25.3-18.8,32.3-9.8,4.9-20.5,6.3-31.4,6.4-16.9,0-33.8,0-50.7,0-2.3,0-5,.9-5.1-3.1,0-3.5,1.8-3.3,4.5-3.6,5-.6,7.6-3.3,7.6-8.2,0-30.9,0-61.9,0-92.8,0-5.1-2-8.7-8.1-8.7-3.2,0-3.1-1.7-3.2-3.7,0-2.1.5-3.2,3.1-3.1,20.4.6,40.9-1.2,61.3,1.1,9.1,1.1,17,4.8,23.4,11.1,11.5,11.3,10.8,28.5-1.8,38.8-2.8,2.2-5.9,4.1-9.5,6.6ZM964.6,581.2c0,6.5-.1,13,0,19.4.1,4.7,2.8,7.4,8.2,7.4,7.3,0,14.6.2,21.9,0,15.1-.4,27-11.3,27.2-24.9.2-13.9-10.8-24.1-26.9-24.5-8.7-.2-17.5.1-26.3-.1-3.9-.1-4.4,1.3-4.3,4.3.2,6.1,0,12.2,0,18.3ZM964.8,528.8c0,5.7,0,11.4,0,17.2,0,2.3.5,3.6,3.4,3.5,8.1-.2,16.2.4,24.3-.6,12.2-1.6,19.2-9.3,19.4-21.4.2-12.1-6.7-20.4-18.3-22.5-6.8-1.2-13.7-1-20.5-.8-5.3.2-8.3,3-8.3,8.1,0,5.5,0,11.1,0,16.6Z" style="fill: #1a1a1a;"/>
  <path d="M597.3,618c-10.4-1.7-12.5-6.5-6.9-13.7.8-1.1,1.7-2.1,2.6-3.2,2.8-3.5,7-6.7,8.1-10.7,1.3-4.5-5.1-6.3-7.7-9.7-14.6-19.4-1.3-46.5,25.5-51.6,6.6-1.2,13.2-1.7,19.8-.2,11.9,2.7,24.1,1.3,36.1,1.3,5.3,0,4.8,2.5,4.9,5.7.2,4.3-2.5,3.4-5.2,3-4.5-.7-9-1.1-14.1-.4,8.6,8.6,12.9,18.4,10.6,29.7-3.1,15.4-19,27.4-37,28.4-5.8.3-11.8.7-17.3-1.5-3.4-1.4-4.9-.1-6.6,2.1-2.3,3-4.7,5.8-7.4,9.1,3,1.1,5.8.5,8.6.6,14.2.5,28.4-1.1,42.5,1,11.4,1.7,20.8,6.5,23.9,17.4,3.3,11.5-1.3,21.5-11.5,28.2-19.8,13-41.8,14.9-64,6.3-19.1-7.4-21.9-25.8-7.4-39.2.7-.6,1.3-1.3,2.5-2.6ZM654.2,562.8c0-14.6-9.5-24.7-23.7-24.9-14.6-.2-25.1,9.5-25.3,23.6-.2,15.1,9.8,25.6,24.4,25.8,14.1.2,24.5-10.2,24.6-24.4ZM630,617.5c-4.8.6-10.8-1.4-16.3.8-12.7,5.1-15.2,22.5-4.7,30.9,12,9.7,39.3,7,48.7-4.9,4.6-5.9,5.2-12.4,1.9-18.9-3.2-6.1-9.4-7.6-16.1-7.9-4.2-.1-8.3,0-13.5,0Z" style="fill: #1a1a1a;"/>
  <path d="M838.9,617.9c-8.3,0-16.7,0-25,0-2.4,0-4.5.2-4.5-3.1,0-2.8,1.1-3.4,3.9-3.6,6.8-.5,7.9-5.1,7.9-10.3,0-27.5,0-55,0-82.4,0-2.7,0-5.3,0-8,0-5.2-2-9.1-8.6-9-3.2,0-3-1.7-3.1-3.7-.1-2.1.5-3.1,3.1-3.1,17.1.3,34.3-1.1,51.3.6,36.6,3.9,59,28.1,58.3,62.1-.7,36.9-27,59.9-68.9,60.5-4.8,0-9.6,0-14.4,0ZM839.2,555.7c0,14.7,0,29.3,0,44,0,4.2,1.5,7.3,5.9,8.2,17.9,3.8,39-4.4,49-18.6,7.2-10.3,9.4-21.8,9.3-33.8,0-10.4-1.9-20.5-7.4-29.7-10.1-17.2-26.8-22.7-47.1-21.9-7.4.3-9.7,2.2-9.7,8.9,0,14.3,0,28.6,0,42.9Z" style="fill: #1a1a1a;"/>
  <path d="M492.5,544.3c11.6-14,25.8-18.5,42.8-15.4,14.1,2.5,23.2,12,23.5,25.2.4,16.2.3,32.4.3,48.6,0,4.8.6,8.5,7.2,8.2,2.9-.1,2.3,2,2.5,3.7.3,2.4-1,2.9-3.3,2.9-10,0-20,0-30,0-2.1,0-3.1-.6-2.9-2.6.2-1.7-.9-4.2,2.6-4,6.4.2,7.5-3.3,7.4-8.2-.1-13.9,0-27.8,0-41.8,0-1.1,0-2.3-.1-3.4-.6-7.7-2.5-15.1-11.3-18.2-9.4-3.3-18.5-2-26.3,4.1-7.7,6.1-11.4,14-11.6,23.2-.3,12.6,0,25.2,0,37.8,0,4.1,1.5,6.8,6.4,6.5,3.2-.2,3.1,1.5,3.2,3.6.2,2.7-1.1,3.1-3.7,3.1-9.6-.1-19.2-.1-28.8,0-2.6,0-3.8-.6-3.7-3.2,0-2.3.6-3.6,3.5-3.5,5.3.2,6.6-2.9,6.6-7.1,0-17.7,0-35.5,0-53.2,0-4.6-1.6-7.4-6.9-7.5-1.5,0-3,.1-3.1-1.9,0-1.4.2-2.6,1.7-3.4,4.5-2.3,8.9-5,13.6-6.9,3.6-1.4,6.9-1,7.7,3.6.5,3,1.6,5.8,2.7,9.9Z" style="fill: #1a1a1a;"/>
  <path d="M448,574c-.2,26.2-21.5,45.8-49.8,45.6-28.5-.2-49.4-19.7-49.2-46,.2-26.7,21.3-45.8,50.3-45.6,27.8.2,48.9,20.1,48.7,46ZM366.1,575c.3,2.6.6,6.2,1.3,9.8,2.9,14.3,14.2,24.1,29,25,14.8.9,26.9-6.5,31.7-20.1,3.6-10,3.7-20.3.4-30.4-4.4-13.7-15.4-21.5-30.1-21.4-14.9,0-25.8,8-30.1,22.1-1.4,4.6-2,9.3-2.2,15.1Z" style="fill: #1a1a1a;"/>
  <path d="M695.1,573.9c0-26.9,20.8-46,49.8-45.9,27.8,0,49.1,19.9,49.2,45.7,0,26.1-21.3,45.8-49.5,45.9-28.6,0-49.5-19.2-49.4-45.6ZM776.9,573.7c-.5-3.6-.7-7.2-1.4-10.7-3-14.6-13.8-24-28.2-24.9-15.8-.9-27.6,6.1-32.4,19.8-3.4,9.6-3.6,19.5-.8,29.3,4.2,14.6,15.5,22.8,30.9,22.6,14.8-.2,26.2-8.8,30-23,1.1-4.2,1.8-8.6,1.9-13.1Z" style="fill: #1a1a1a;"/>
  <path d="M1056,602.3c0-4.8,3.6-6.1,8.9-6.9-1.3,2-3.4,2.9-2.6,4.8,1.9,3.2,1.3,6.6.7,9.9-.2,1.5-.4,2.1,1.4,2.1,1.5,0,3.1,0,1.9-2.1-.4-.8-.5-1.7.3-2.4,1.9,1.7,2.2,5.3,6.2,4.5.5.4.9.9,1.4,1.3-3.5,3.2-7.6,3.4-11.8,1.5-4.2-1.9-5.6-5.2-5.5-9.3,0-1.2.9-2.6-1-3.4Z" style="fill: #1a1a1a;"/>
  <path d="M1056,602.3c1.8.8,1,2.2,1,3.4-.1,4.1,1.3,7.4,5.5,9.3,4.2,1.9,8.3,1.7,11.8-1.5,5.5-5.4,3.7-10.6-1.5-16.2,6.7,3.1,8.7,8.6,6.1,13.9-2.9,5.8-10.2,8.3-16.9,5.8-6.2-2.3-8.4-7.7-6-14.6Z" style="fill: #1a1a1a;"/>
  <path d="M1072.9,612.2c-4,.8-4.3-2.8-6.2-4.5-.8.8-.8,1.7-.3,2.4,1.2,2.2-.4,2.1-1.9,2.1-1.7,0-1.6-.7-1.4-2.1.5-3.3,1.2-6.7-.7-9.9,2.3.1,4.6,0,6.8.5,2,.4,4,2.3,2.7,3.6-3.4,3.4.5,5.3,1.1,7.9Z" style="fill: #1a1a1a;"/>
  <path d="M59.7,507.5c-.5,0-1.1-.1-1.6-.2v-10.5c1.8,3.5,2.6,7,1.6,10.7Z" style="fill: #1a1a1a;"/>
</svg>