<?xml version="1.0" encoding="UTF-8"?>
<svg id="Layer_4" xmlns="http://www.w3.org/2000/svg" viewBox="0 0 1080 1080">
  <g>
    <path d="M961.2,558.1h-.7c.2,0,.4,0,.7,0,.7,0,1.4,0,2.1,0-.7,0-1.4,0-2.1,0Z" style="fill: #1a1a1a;"/>
    <path d="M447.4,629.5c.2,3.7-.8,4.9-4.7,4.8-34.4-.2-68.9,0-103.3,0s-50.5,0-75.8,0c-3.4,0-5.5-.9-7.7-3.6-35.2-44-70.5-87.8-105.7-131.7-.5-.6-1-1.2-2.3-2.8v5.6c0,42.5,0,85.1.1,127.6,0,4-1.1,4.8-4.8,4.7-6.9-.3-13.8-.3-20.7,0-3.9.2-5.1-.6-5.1-4.9.2-28.3.1-56.6.1-84.9s0-54.5,0-81.7c0-3.7,1-4.5,4.5-4.4,9.8.2,19.6.2,29.4,0,2.9,0,4.7.9,6.5,3.1,44.6,55.6,89.3,111.1,134,166.7,1,1.2,1.6,2.9,3.8,3.6v-4.6c0-54.6,0-109.3,0-163.9,0-3.6.6-4.8,4.6-4.8,47.6.2,95.2.1,142.8,0,3.7,0,4.6,1,4.5,4.5-.3,6.6-.3,13.2,0,19.7.2,3.6-1,4.2-4.4,4.2-37.5-.1-75,0-112.5-.2-4.2,0-5,1.2-4.9,5,.3,11.8.2,23.6,0,35.4,0,3.7.7,4.9,4.7,4.8,29.5-.2,59.1,0,88.6-.2,3.4,0,4.8.6,4.6,4.4-.4,6.4-.3,12.9,0,19.3.2,3.6-.8,4.6-4.5,4.6-29.4-.2-58.8,0-88.1-.2-4.1,0-5.4,1-5.2,5.2.3,12.2.2,24.5,0,36.7,0,3.6.8,4.6,4.5,4.5,37.5-.2,75,0,112.5-.2,3.8,0,4.9.9,4.7,4.8-.3,6.2-.3,12.5,0,18.8Z" style="fill: #e6e6e6;"/>
    <path d="M664.2,634.4c-13.1,0-25.4,0-37.7,0-1.6,0-2.4-1-3.3-2-46.2-57.6-92.5-115.2-138.7-172.8,0-.1-.1-.3-.6-1.2,12.7,0,24.9,0,37.1,0,2.4,0,3.1,1.6,4.2,3,15.3,18.9,30.5,37.8,45.7,56.9,2.3,2.9,3.4,3.6,6,.2,15-19,30.2-37.7,45.3-56.6,1.8-2.3,3.6-3.2,6.5-3.2,11.5.2,22.9,0,34.5,0,.3,2.1-1.4,3-2.4,4.2-21.3,26.6-42.6,53.3-64.1,79.7-2.6,3.2-2.2,5,.1,7.9,21.5,26.5,42.8,53.1,64.2,79.7.9,1.2,1.8,2.4,3.2,4.2Z" style="fill: #e6e6e6;"/>
    <path d="M848.6,462.3c-.3,6.9-.2,13.8,0,20.6,0,3.1-.9,3.8-3.9,3.8-17-.1-34,.2-50.9-.2-4.9-.1-5.6,1.5-5.6,5.8.2,45.6,0,91.2.2,136.8,0,4.2-1.1,5.4-5.3,5.2-6.9-.4-13.8-.3-20.7,0-3.5.2-4.3-.9-4.3-4.3.1-45.9,0-91.8.2-137.7,0-4.5-.9-5.9-5.7-5.8-17.1.3-34.3,0-51.4.2-4,0-4.8-1.2-4.6-4.9.3-6.3.3-12.5,0-18.8-.2-3.7.7-4.9,4.7-4.8,23.9.2,47.7.1,71.6.1s47.7,0,71.6,0c3.2,0,4.2.8,4,4Z" style="fill: #e6e6e6;"/>
    <path d="M561.4,586.8c-12.3,15-24.4,30.2-36.6,45.3-.9,1.2-1.6,2.5-3.5,2.5-12.3,0-24.6,0-37,0,0-1.9,1.2-2.7,2-3.7,18.2-22.6,36.4-45.2,54.5-67.9,2.3-2.9,3.5-3.2,5.8,0,4.6,6.2,9.6,12.3,14.6,18.2,1.7,2.1,2.1,3.4.2,5.7Z" style="fill: #e6e6e6;"/>
    <path d="M979.9,628.5c-10,6.7-28.4,6.7-38.5,0-5.3-3.5-8.3-8.5-9.2-14.6-.1-.9-.4-2,0-2.7.7-1.4,12.5-.3,13.2,1,4.2,8.5,11.2,11.6,20.6,9.2,2.2-.6,4.4-1.4,6.1-3,4.9-4.3,4.2-10.9-1.7-13.9-4.8-2.5-10.1-3.4-15.3-4.7-3.7-1-7.3-2.1-10.7-3.9-12.9-6.7-14.4-22.7-2.9-31.8,1-.8,2.1-1.6,3.2-2.2.1,0,.2-.1.3-.2,1.3-.7,2.6-1.3,4-1.8,1.7-.6,3.4-1,5.2-1.3.4,0,.8-.1,1.3-.2.4,0,.8-.1,1.2-.1.3,0,.6,0,.8,0,1,0,2-.1,3.1-.1h.7c.7,0,1.4,0,2.1,0,.7,0,1.4,0,2.1.1.3,0,.5,0,.8,0,1.1.1,2.2.3,3.3.5.4,0,.8.2,1.2.3,1.1.3,2.2.6,3.2,1,.4.2.8.3,1.2.5.3.1.5.2.8.4.4.2.8.4,1.2.6.1,0,.2.1.3.2.3.2.7.4,1,.7.8.5,1.6,1.1,2.3,1.8.3.3.6.5.9.8.4.4.8.8,1.2,1.2.4.4.7.9,1.1,1.3,2.5,3.2,5.3,7.8,3.2,10.7-1.8,2.5-7.1.6-10.9.8-1.7,0-1.6-1.5-2-2.6-3.7-8.4-19.6-10.1-25.1-2.8-3,4-1.9,9.1,2.6,11.8,4.7,2.8,10.1,3.5,15.2,4.8,4.5,1.2,8.8,2.5,12.7,5,12.4,7.9,12.5,24.8.2,32.9Z" style="fill: #e6e6e6;"/>
    <path d="M920,610.9c-.1,9.9-5.3,17.5-13.8,20.7-10,3.7-22.6,1.3-28.6-5.5-.6-.7-1.2-1.4-1.6-2.2-2-3.3-4.5-8-2.2-10.5,2.3-2.4,7.5-.6,11.4-.7,1.2,0,1.1,1.2,1.4,2,2.2,5.9,6.2,8.4,11.9,7.3,5.1-.9,7.9-4.3,7.9-10.7.1-15.9.2-31.8,0-47.7,0-3.9,1-4.9,4.8-4.7,8.8.3,8.8,0,8.8,8.8v19.7c0,7.8,0,15.6,0,23.4Z" style="fill: #e6e6e6;"/>
    <path d="M863.2,625.1c0,4.4-3.7,8-8.3,7.9-4.4-.1-7.7-3.6-7.6-8,0-4.3,3.7-7.8,8-7.7,4.2,0,7.9,3.7,7.9,7.8Z" style="fill: #e6e6e6;"/>
  </g>
  <path d="M0,189h0V59.5c0,43.2,0,86.3,0,129.5Z" style="fill: #1a1a1a;"/>
  <path d="M1080,58.6v130.4h0c0-43.5,0-87,0-130.4Z" style="fill: #1a1a1a;"/>
  <path d="M1080,58.6V0H0v59.5c0,43.2,0,86.3,0,129.5,0,236.7,0,473.3,0,710h0v181h1080v-181h-.1c0-236.7,0-473.3,0-710,0-43.5,0-87,0-130.4ZM932.2,611.2c.7-1.4,12.5-.3,13.2,1,4.2,8.5,11.2,11.6,20.6,9.2,2.2-.6,4.4-1.4,6.1-3,4.9-4.3,4.2-10.9-1.7-13.9-4.8-2.5-10.1-3.4-15.3-4.7-3.7-1-7.3-2.1-10.7-3.9-12.9-6.7-14.4-22.7-2.9-31.8,1-.8,2.1-1.6,3.2-2.2.1,0,.2-.1.3-.2,1.3-.7,2.6-1.3,4-1.8,1.7-.6,3.4-1,5.2-1.3.4,0,.8-.1,1.3-.2.4,0,.8-.1,1.2-.1.3,0,.6,0,.8,0,1,0,2-.1,3.1-.1h.7c.7,0,1.4,0,2.1,0,.7,0,1.4,0,2.1.1.3,0,.5,0,.8,0,1.1.1,2.2.3,3.3.5.4,0,.8.2,1.2.3,1.1.3,2.2.6,3.2,1,.4.2.8.3,1.2.5.3.1.5.2.8.4.4.2.8.4,1.2.6.1,0,.2.1.3.2.3.2.7.4,1,.7.8.5,1.6,1.1,2.3,1.8.3.3.6.5.9.8.4.4.8.8,1.2,1.2.4.4.7.9,1.1,1.3,2.5,3.2,5.3,7.8,3.2,10.7-1.8,2.5-7.1.6-10.9.8-1.7,0-1.6-1.5-2-2.6-3.7-8.4-19.6-10.1-25.1-2.8-3,4-1.9,9.1,2.6,11.8,4.7,2.8,10.1,3.5,15.2,4.8,4.5,1.2,8.8,2.5,12.7,5,12.4,7.9,12.5,24.8.2,32.9-10,6.7-28.4,6.7-38.5,0-5.3-3.5-8.3-8.5-9.2-14.6-.1-.9-.4-2,0-2.7ZM873.8,613.4c2.3-2.4,7.5-.6,11.4-.7,1.2,0,1.1,1.2,1.4,2,2.2,5.9,6.2,8.4,11.9,7.3,5.1-.9,7.9-4.3,7.9-10.7.1-15.9.2-31.8,0-47.7,0-3.9,1-4.9,4.8-4.7,8.8.3,8.8,0,8.8,8.8v19.7c0,7.8,0,15.6,0,23.4-.1,9.9-5.3,17.5-13.8,20.7-10,3.7-22.6,1.3-28.6-5.5-.6-.7-1.2-1.4-1.6-2.2-2-3.3-4.5-8-2.2-10.5ZM855.3,617.3c4.2,0,7.9,3.7,7.9,7.8,0,4.4-3.7,8-8.3,7.9-4.4-.1-7.7-3.6-7.6-8,0-4.3,3.7-7.8,8-7.7ZM701.3,458.3c23.9.2,47.7.1,71.6.1s47.7,0,71.6,0c3.2,0,4.2.8,4,4-.3,6.9-.2,13.8,0,20.6,0,3.1-.9,3.8-3.9,3.8-17-.1-34,.2-50.9-.2-4.9-.1-5.6,1.5-5.6,5.8.2,45.6,0,91.2.2,136.8,0,4.2-1.1,5.4-5.3,5.2-6.9-.4-13.8-.3-20.7,0-3.5.2-4.3-.9-4.3-4.3.1-45.9,0-91.8.2-137.7,0-4.5-.9-5.9-5.7-5.8-17.1.3-34.3,0-51.4.2-4,0-4.8-1.2-4.6-4.9.3-6.3.3-12.5,0-18.8-.2-3.7.7-4.9,4.7-4.8ZM521,458.4c2.4,0,3.1,1.6,4.2,3,15.3,18.9,30.5,37.8,45.7,56.9,2.3,2.9,3.4,3.6,6,.2,15-19,30.2-37.7,45.3-56.6,1.8-2.3,3.6-3.2,6.5-3.2,11.5.2,22.9,0,34.5,0,.3,2.1-1.4,3-2.4,4.2-21.3,26.6-42.6,53.3-64.1,79.7-2.6,3.2-2.2,5,.1,7.9,21.5,26.5,42.8,53.1,64.2,79.7.9,1.2,1.8,2.4,3.2,4.2-13.1,0-25.4,0-37.7,0-1.6,0-2.4-1-3.3-2-46.2-57.6-92.5-115.2-138.7-172.8,0-.1-.1-.3-.6-1.2,12.7,0,24.9,0,37.1,0ZM561.4,586.8c-12.3,15-24.4,30.2-36.6,45.3-.9,1.2-1.6,2.5-3.5,2.5-12.3,0-24.6,0-37,0,0-1.9,1.2-2.7,2-3.7,18.2-22.6,36.4-45.2,54.5-67.9,2.3-2.9,3.5-3.2,5.8,0,4.6,6.2,9.6,12.3,14.6,18.2,1.7,2.1,2.1,3.4.2,5.7ZM117.6,544.4c0-27.2,0-54.5,0-81.7,0-3.7,1-4.5,4.5-4.4,9.8.2,19.6.2,29.4,0,2.9,0,4.7.9,6.5,3.1,44.6,55.6,89.3,111.1,134,166.7,1,1.2,1.6,2.9,3.8,3.6v-4.6c0-54.6,0-109.3,0-163.9,0-3.6.6-4.8,4.6-4.8,47.6.2,95.2.1,142.8,0,3.7,0,4.6,1,4.5,4.5-.3,6.6-.3,13.2,0,19.7.2,3.6-1,4.2-4.4,4.2-37.5-.1-75,0-112.5-.2-4.2,0-5,1.2-4.9,5,.3,11.8.2,23.6,0,35.4,0,3.7.7,4.9,4.7,4.8,29.5-.2,59.1,0,88.6-.2,3.4,0,4.8.6,4.6,4.4-.4,6.4-.3,12.9,0,19.3.2,3.6-.8,4.6-4.5,4.6-29.4-.2-58.8,0-88.1-.2-4.1,0-5.4,1-5.2,5.2.3,12.2.2,24.5,0,36.7,0,3.6.8,4.6,4.5,4.5,37.5-.2,75,0,112.5-.2,3.8,0,4.9.9,4.7,4.8-.3,6.2-.3,12.5,0,18.8.2,3.7-.8,4.9-4.7,4.8-34.4-.2-68.9,0-103.3,0s-50.5,0-75.8,0c-3.4,0-5.5-.9-7.7-3.6-35.2-44-70.5-87.8-105.7-131.7-.5-.6-1-1.2-2.3-2.8v5.6c0,42.5,0,85.1.1,127.6,0,4-1.1,4.8-4.8,4.7-6.9-.3-13.8-.3-20.7,0-3.9.2-5.1-.6-5.1-4.9.2-28.3.1-56.6.1-84.9Z" style="fill: #1a1a1a;"/>
</svg>