<?xml version="1.0" encoding="UTF-8"?>
<svg id="Layer_6" xmlns="http://www.w3.org/2000/svg" viewBox="0 0 1080 1080">
  <path d="M217.3,842.9c.9-40.4,6.9-80.2,16.5-119.4.9-3.6.4-4.9-3.3-6-43.7-12.9-85.5-30-124.3-54.1-23.8-14.9-45.8-32.1-63.7-53.9-13.8-16.9-24.3-35.5-27.5-57.5-3.8-25.7,3.7-48.7,18-69.7,16.2-23.9,37.9-42.1,61.8-57.8,37.9-24.8,79.3-41.9,122.3-55.5,4.9-1.5,9.8-3.1,14.7-4.4,2.9-.7,3.6-1.8,2.9-4.8-6.2-24.6-10.7-49.5-13.7-74.7-4.7-40.9-5.7-81.8,3.8-122.3,4.4-18.7,11.1-36.3,22.1-52.2,20.5-29.7,49.2-41.9,84.5-40,23.4,1.2,45.8,7.1,66.9,16.7,40.2,18.4,77,42.3,110.7,71,9.7,8.3,19.4,16.5,28.4,25.5,2.5,2.5,3.8,2.2,6.2-.1,31.3-29.9,64.9-56.9,102.5-78.6,9.4-5.4,19.2-9.9,28.8-15,19.3-10.3,39.9-16.4,61.4-19.3,25.8-3.5,50.9-.9,72.4,15.2,17,12.8,28.8,30,36.8,49.8,9.6,23.7,14,48.6,15.7,74,2.3,34.2-.5,68.1-5.7,102-2.5,16.2-5.6,32.3-9.5,48.2-.8,3.4,0,4.5,3.1,5.4,35.5,10.3,69.9,23.3,102.7,40.4,29.8,15.6,57.8,33.9,80.8,58.9,15,16.3,26.7,34.4,31.4,56.5,4.3,20.4,1.2,39.9-7.7,58.5-11.3,23.6-28.9,42.1-48.9,58.4-34.3,27.7-73.3,47-114.1,62.7-13.6,5.3-27.4,10.1-41.5,14.1-3.8,1.1-4.2,2.6-3.4,6.1,10,41.4,15.8,83.4,15.4,126.1-.4,33.3-4.5,66-17.5,97-7.8,18.6-19.1,34.6-34.9,47.7-13.8,11.4-29.8,16.5-47,18.1-28.4,2.6-55.4-4-81.1-15.4-52.2-23.4-97.4-57.1-138.4-96.7-2.7-2.6-4-1.9-6.2.3-30.4,29-63.2,54.8-99.7,75.7-11.7,6.7-24,12.2-36.1,18.1-20.9,10.2-42.9,15.9-65.9,17.9-22.5,1.9-44.4-.9-63.5-13.8-18-12.2-30.7-29.3-39.3-49.4-10.3-24.2-14.7-49.6-16.3-75.6-.6-9.3-.9-18.7-.7-28.1ZM542.8,710.1c28.1.1,58.7-1,89.4-3,2.6-.2,4.6-.7,6.2-3.2,33.9-51.5,64.7-104.8,91.9-160.2,1.5-3,1.4-5.6-.2-8.6-10.1-19.8-20.4-39.5-31.2-59-18.8-33.8-38.9-66.7-60.4-98.9-1.8-2.7-3.8-3.9-7.1-4-8.9-.3-17.8-1.1-26.7-1.6-51.6-2.6-103.2-2.1-154.8,1.5-4,.3-6.5,1.5-8.8,4.9-33.9,50.5-64.2,103.1-90.8,157.8-1.5,3.1-1.5,5.5,0,8.6,27,55.3,57.8,108.5,92.3,159.4,1.5,2.2,3.1,3.3,5.9,3.5,30.5,1.8,61.1,2.7,94.3,2.7ZM59.1,538.9c0,1.5,0,2.9,0,4.4,0,1,.3,2,.4,3,2.4,13.2,9.2,24.2,17.5,34.4,11.3,14,24.9,25.5,39.7,35.7,38.9,27,82,44.7,127,58.3,3.3,1,3.6-.7,4.3-3,13.6-43.5,30.1-85.8,49-127.2,1.4-3.1,1.3-5.6,0-8.7-6.6-14.8-13.1-29.7-19.3-44.7-10.9-26.4-20.5-53.2-29-80.5-.8-2.7-1.6-4.1-4.7-2.9-3.7,1.4-7.5,2.3-11.3,3.5-39.9,12.4-78.5,28-113.6,51.1-18.9,12.4-36.4,26.6-49.3,45.6-6.3,9.3-10.8,19.4-10.8,31ZM262.4,834.8c-.5,29.8.8,51.8,6.3,73.4,2.1,8.2,4.8,16.3,8.5,24,11.6,24.4,28.9,34.3,55.7,32,14.4-1.2,28.3-4.6,41.7-9.7,51.6-19.6,94.3-52.4,134-89.7,1.9-1.8,1-2.8-.3-4.2-7.4-8.1-14.8-16.2-21.9-24.6-22.7-26.4-44.4-53.6-64-82.4-1.2-1.8-2.4-3.3-5-3.6-45.7-3.7-91-9.8-135.8-19.6-2.7-.6-3.5,0-4.1,2.6-8.5,36-14.4,72.3-15.1,101.7ZM819,841.1c-.5-37-5.7-73.5-14.1-109.5-.7-2.9-1.8-3.6-4.8-2.9-44.6,10.2-89.7,16.7-135.2,20.8-2.4.2-4,1-5.4,3-4,6.1-7.9,12.2-12.2,18.2-22.2,31-45.7,60.8-71.4,89-2.4,2.6-2.2,4,.3,6.2,5.5,4.8,10.7,10,16.2,14.8,31.8,28.1,65.7,53.3,104.9,70.3,19,8.3,38.7,14.4,59.8,13.7,14.7-.5,26.9-5.9,36.1-17.8,6.3-8.2,10.8-17.3,14.3-27.1,9-25.5,11.1-52,11.4-78.7ZM262.6,240.7c.9,34.2,6.7,71.6,15.6,108.5.6,2.6,1.5,3.1,4.1,2.6,44.1-9.8,88.8-16.6,133.8-20.7,2.4-.2,4-1.2,5.3-3.2,4-5.9,7.9-11.9,12.2-17.7,22.7-30.8,46.8-60.4,72.7-88.4,2.2-2.4,2.3-3.6-.2-5.8-11.6-10.7-23.4-21.2-35.8-31-29.4-23.4-60.5-44.1-95.8-57.7-18.4-7.1-37.3-12.1-57.3-10.3-13.7,1.2-24.8,7.3-32.8,18.6-4.9,6.9-8.5,14.3-11.3,22.2-9,25.7-10.9,52.3-10.6,83ZM817.1,235.9c0-13.5-.6-26.9-2.5-40.3-2.6-18.5-6.8-36.5-15.7-53.1-10.9-20.4-28-28.8-50.8-26.9-23.5,2-44.9,10.3-65.6,20.9-40.3,20.7-75.2,48.8-108,79.7-2.2,2.1-1.9,3.2,0,5.2,26,28.2,50,58.1,72.6,89.1,4.1,5.7,8,11.5,11.8,17.4,1.3,2,2.9,2.9,5.3,3.2,45,4.2,89.7,11,133.8,21.1,2.8.6,3.8,0,4.5-2.8,8.6-37.3,14.1-75.1,14.6-113.4ZM1021.1,535.7c-.1-10-6.2-21.2-14.1-31.7-9.4-12.5-20.9-22.9-33.5-32-41.7-30.5-88.8-49.1-137.8-63.8-3-.9-3.1,1-3.6,2.8-13.4,42.5-29.8,83.8-48.5,124.2-1.4,3-1.4,5.4,0,8.3,19.4,41.2,36.7,83.2,50.5,126.6.8,2.6,1.9,2.9,4.4,2.2,12.4-3.8,24.8-8,36.9-12.6,34.7-13.2,68-29.1,97.8-51.7,15.8-12,30.3-25.4,40.3-42.9,4.6-8,7.6-16.4,7.6-29.3ZM478.8,754c4.1,5.8,7.4,10.9,11.2,15.7,15.6,20,32,39.2,49,58,2.2,2.5,3.3,2.6,5.6,0,16.6-18.7,32.5-38,47.6-58,3.7-4.9,7.1-10.2,11-16-41.7,1.8-82.6,1.7-124.4.2ZM756.4,591.8c-19.6,37.7-40.3,73.5-62.6,109,1.7,0,2.5,0,3.4,0,30.5-3.8,60.7-8.8,90.7-15.4,3.2-.7,3.5-1.7,2.6-4.7-6-18.1-12.4-35.9-19.5-53.6-4.6-11.5-9.4-22.9-14.6-35.4ZM324.8,594c-.6,1-.8,1.2-.9,1.4-12.2,28.8-23,58.2-32.5,88-.9,3,.2,3.4,2.6,3.9,23.6,5,47.4,9,71.3,12.1,7,.9,14,1.7,22.2,2.7-22.8-35.6-43.4-71.2-62.7-108.1ZM602,326.5c-3.8-5.5-6.8-10.3-10.2-14.7-15.4-19.9-31.5-39.2-48.4-57.9-2.5-2.8-3.7-2.3-5.9.1-16.9,18.6-33.2,37.8-48.6,57.7-3.5,4.5-6.7,9.4-10.4,14.8,41.4-1.8,82-1.9,123.6,0ZM755.6,486.4c.7-1,1-1.3,1.2-1.7,11.9-28,22.6-56.4,31.9-85.4,1.1-3.5-.9-3.5-3.1-4-19.7-4.4-39.5-8.1-59.4-11.3-10.5-1.6-21-3-32.6-4.7,22.4,35.3,42.7,70.6,62,107ZM385.2,379.8c-.5,0-1.1,0-1.6,0-29.6,3.9-59,8.8-88.2,15-3.9.8-4,2.3-2.9,5.5,9,28,19.1,55.6,30.5,82.7.4,1,.6,2.2,1.2,2.5,20.4-35.3,40.6-70.5,61-105.8Z" style="fill: #1a1a1a;"/>
  <path d="M540,633.6c-52.2,0-93.9-42-93.9-94.7,0-52.1,42-94.2,94-94.2,51.9,0,93.9,42.2,93.9,94.3,0,52.6-41.7,94.6-94,94.6Z" style="fill: #1a1a1a;"/>
</svg>