<?xml version="1.0" encoding="UTF-8"?>
<svg id="Layer_7" xmlns="http://www.w3.org/2000/svg" viewBox="0 0 1080 1080">
  <path d="M88.4,716.5c-3.2-5.1-.1-9.6,1.3-14.3,31-104.7,104.6-159.7,215.8-162.1,76.9-1.7,142.9,23.2,197.2,78.3,15.4,15.6,30.9,31.3,47.3,45.8,60.3,53.3,133.9,51.4,192-4.7,7.8-7.5,15-15.8,25.3-26.7-13.5,49.3-32.9,90.9-68.3,123.5-50.7,46.6-112.6,56.8-178.3,54-65.4-2.8-120.7-28.4-167.2-73.9-15.7-15.4-31-31.1-47.1-46.1-62.2-57.5-138.6-56-198.7,3.9-7,7-13.1,15-19.6,22.6l.4-.3Z" style="fill: #1a1a1a;"/>
  <path d="M991.6,363.9c3.1,5.1,0,9.7-1.3,14.3-31,104.3-103.7,159-214.5,162-75.7,2-141.4-21.3-195.4-75.3-14.1-14.1-28.3-28.2-42.7-42-66.7-63.5-148.9-59.9-210.4,8.9-3.2,3.6-6.5,7.2-11.8,12.9,0-11.8,3.8-19.8,6.7-27.7,36.1-97.1,105.5-145.3,210.1-147.6,77.6-1.7,144,23.1,198.6,78.6,13.7,13.9,27.4,27.7,41.7,41,63.9,59.6,142.3,57.3,203-6,5.9-6.1,11-12.9,16.5-19.4l-.4.3Z" style="fill: #1a1a1a;"/>
  <path d="M992.1,363.6l.3.7s-.8-.4-.8-.4c0,0,.4-.3.4-.3Z" style="fill: #fcfdfd;"/>
  <path d="M88,716.8l-.3-.7s.8.4.8.4c0,0-.5.3-.5.3Z" style="fill: #fcfdfd;"/>
</svg>