<?xml version="1.0" encoding="UTF-8"?>
<svg id="Layer_3" xmlns="http://www.w3.org/2000/svg" viewBox="0 0 1080 1080">
  <path d="M0,982.9c0-295.3,0-590.6,0-885.9.2-.7.4-1.5.5-2.2.5-5.9,1.5-11.8,3.3-17.5C16.4,36.9,43.3,11.6,84.7,2.1c4.1-.9,8.2-1.4,12.4-2.1,295.3,0,590.6,0,885.9,0,4.4.7,8.8,1.2,13.2,2.2,38.2,9,64.2,31.9,78.1,68.6,3.2,8.6,4.6,17.7,5.8,26.7v884.8c-.6,3.9-1,7.7-1.7,11.6-7.4,41.4-40.8,75.5-82.2,83.8-4.3.9-8.8,1.4-13.1,2.2H97.1c-.6-.2-1.1-.4-1.7-.5-6.1-.4-12.2-1.5-18-3.3-40.5-12.6-65.7-39.5-75.2-80.9-.9-4.1-1.4-8.2-2.1-12.3ZM668.7,859.8c0,.9-.2,1.6-.2,2.2,0,33.6,0,67.1,0,100.7,0,1.8.7,2.6,2.2,3.4,8.6,4.1,17.3,7.7,26.4,10.5,23.5,7.5,47.6,11.4,72.1,13.3,34.2,2.8,68.3,1.6,102.1-4.9,20.9-4.1,40.9-10.8,59.3-21.7,24.1-14.3,41.8-34.1,52.1-60.2,5.4-13.7,7.7-28.1,8.5-42.7,1-18.7-.4-37.2-6.4-55.2-8.4-25.3-24.7-44.8-45.7-60.7-18.3-13.9-38.6-24.3-59.5-33.6-18-8.1-36.4-15.2-54-24.3-12.5-6.5-24.5-13.7-34.4-24-9.6-10-14.1-21.7-11.8-35.6,2-12,9.3-20.4,19.2-26.8,13.9-9.1,29.7-12.4,45.9-13.8,15.4-1.3,30.7-.4,46,2.1,27.8,4.4,54,13.2,77.7,28.7.7.4,1.2,1.2,2.2,1.1,0-.4.2-.6.2-.9,0-31.8,0-63.6,0-95.4,0-1.4-.5-2-1.8-2.5-4.2-1.4-8.4-3-12.7-4.3-23.7-7.3-48.1-10.8-72.8-12.3-29.8-1.7-59.5-1.2-89,4.4-21.8,4.1-42.7,10.7-62.1,21.6-24.4,13.8-43.3,32.8-55,58.5-6.6,14.4-9.5,29.7-10.4,45.4-1.3,22.7,1.7,44.7,11.4,65.5,10.2,21.9,26.3,38.6,45.6,52.5,18.1,13.1,38.1,22.7,58.7,31.2,19.2,8,38.5,15.8,56.6,26.2,11.8,6.8,22.9,14.5,31.2,25.5,14.7,19.3,10.9,44.6-9,58.6-9.6,6.8-20.5,10.4-31.9,12.5-19.4,3.7-39,3.5-58.5.6-32.3-4.7-61.8-16.4-88.4-35.3-4.6-3.3-9.1-6.8-13.9-10.4ZM491,792.3c0-63.3,0-126.5,0-189.8,0-2.6.5-3.4,3.3-3.4,43.1,0,86.3,0,129.4.1,2.4,0,2.9-.6,2.9-2.9,0-27,0-54,0-80.9,0-2.3-.6-2.9-2.9-2.9-123.9,0-247.8,0-371.7,0-2.3,0-3.1.4-3.1,3,.1,26.8,0,53.6,0,80.4,0,3.7-.6,3.3,3.4,3.3,42.5,0,85.1,0,127.6,0,.7,0,1.4,0,2.1,0,1.3,0,1.8.5,1.7,1.7,0,.9,0,1.8,0,2.6,0,125.9,0,251.9,0,377.8q0,3.7,3.8,3.7c33.4,0,66.8,0,100.2,0,2.6,0,3.3-.5,3.3-3.2,0-63.2,0-126.4,0-189.6Z" style="fill: #1a1a1a;"/>
  <path d="M0,982.9c.7,4.1,1.1,8.3,2.1,12.3,9.5,41.4,34.7,68.3,75.2,80.9,5.8,1.8,11.9,2.9,18,3.3.6,0,1.2.3,1.7.5-31.6,0-63.3,0-94.9,0-1.8,0-2.2-.4-2.2-2.2,0-31.6,0-63.3,0-94.9Z" style="fill: #fdfefe;"/>
  <path d="M982.9,1079.9c4.4-.7,8.8-1.3,13.1-2.2,41.4-8.4,74.8-42.4,82.2-83.8.7-3.8,1.1-7.7,1.7-11.6,0,31.8,0,63.6,0,95.4,0,1.8-.4,2.2-2.2,2.2-31.6,0-63.3,0-94.9,0Z" style="fill: #fdfefe;"/>
  <path d="M97.1,0c-4.1.7-8.3,1.1-12.4,2.1C43.3,11.6,16.4,36.9,3.8,77.4c-1.8,5.7-2.8,11.5-3.3,17.5,0,.8-.3,1.5-.5,2.2,0-31.6,0-63.2,0-94.8C0,.4.4,0,2.3,0c31.6,0,63.2,0,94.8,0Z" style="fill: #fdfefe;"/>
  <path d="M1079.9,97.6c-1.2-9.1-2.5-18.1-5.8-26.7-13.8-36.7-39.9-59.7-78.1-68.6-4.3-1-8.8-1.5-13.2-2.2,31.6,0,63.3,0,94.9,0,1.8,0,2.2.4,2.2,2.2,0,31.8,0,63.6,0,95.4Z" style="fill: #fdfefe;"/>
  <path d="M668.7,859.8c4.8,3.6,9.2,7.1,13.9,10.4,26.6,18.9,56.1,30.6,88.4,35.3,19.5,2.9,39,3.1,58.5-.6,11.4-2.1,22.3-5.7,31.9-12.5,19.9-14,23.7-39.3,9-58.6-8.4-11-19.4-18.7-31.2-25.5-18.1-10.4-37.3-18.3-56.6-26.2-20.6-8.5-40.6-18.1-58.7-31.2-19.3-13.9-35.5-30.7-45.6-52.5-9.7-20.8-12.6-42.8-11.4-65.5.9-15.7,3.8-31,10.4-45.4,11.7-25.7,30.6-44.7,55-58.5,19.4-10.9,40.3-17.5,62.1-21.6,29.5-5.6,59.2-6.1,89-4.4,24.7,1.4,49.1,5,72.8,12.3,4.3,1.3,8.5,2.9,12.7,4.3,1.2.4,1.8,1.1,1.8,2.5,0,31.8,0,63.6,0,95.4,0,.3,0,.5-.2.9-1,.1-1.6-.6-2.2-1.1-23.7-15.5-49.9-24.2-77.7-28.7-15.2-2.4-30.6-3.4-46-2.1-16.3,1.4-32,4.7-45.9,13.8-9.8,6.4-17.1,14.9-19.2,26.8-2.4,13.9,2.1,25.6,11.8,35.6,9.9,10.3,22,17.4,34.4,24,17.5,9.2,36,16.3,54,24.3,20.9,9.3,41.2,19.7,59.5,33.6,21,15.9,37.2,35.4,45.7,60.7,6,17.9,7.3,36.4,6.4,55.2-.8,14.6-3.1,29-8.5,42.7-10.3,26.1-28,45.9-52.1,60.2-18.4,10.9-38.4,17.6-59.3,21.7-33.8,6.6-67.8,7.7-102.1,4.9-24.5-2-48.6-5.8-72.1-13.3-9-2.9-17.8-6.4-26.4-10.5-1.5-.7-2.2-1.5-2.2-3.4,0-33.6,0-67.1,0-100.7,0-.7,0-1.3.2-2.2Z" style="fill: #e6e6e6;"/>
  <path d="M491,792.3c0,63.2,0,126.4,0,189.6,0,2.7-.7,3.3-3.3,3.2-33.4,0-66.8,0-100.2,0q-3.8,0-3.8-3.7c0-125.9,0-251.9,0-377.8,0-.9,0-1.8,0-2.6,0-1.2-.4-1.8-1.7-1.7-.7,0-1.4,0-2.1,0-42.5,0-85.1,0-127.6,0-4,0-3.4.4-3.4-3.3,0-26.8,0-53.6,0-80.4,0-2.5.8-3,3.1-3,123.9,0,247.8,0,371.7,0,2.3,0,2.9.5,2.9,2.9,0,27,0,54,0,80.9,0,2.3-.5,2.9-2.9,2.9-43.1,0-86.3,0-129.4-.1-2.7,0-3.3.8-3.3,3.4,0,63.3,0,126.5,0,189.8Z" style="fill: #e6e6e6;"/>
</svg>